<?xml version="1.0" encoding="UTF-8"?>
<svg width="12px" height="12px" viewBox="0 0 12 12" version="1.1" xmlns="http://www.w3.org/2000/svg" xmlns:xlink="http://www.w3.org/1999/xlink">
    <!-- Generator: Sketch 60.1 (88133) - https://sketch.com -->
    <title>del</title>
    <desc>Created with Sketch.</desc>
    <g id="v1.7" stroke="none" stroke-width="1" fill="none" fill-rule="evenodd">
        <g id="系统运维" transform="translate(-1007.000000, -339.000000)">
            <g id="编组" transform="translate(728.000000, 105.000000)">
                <g id="del" transform="translate(279.000000, 234.000000)">
                    <rect id="矩形" fill="#FFFFFF" opacity="0" x="0" y="0" width="12" height="12"></rect>
                    <path d="M1.12646571,0.5 L1.02985249,0.507077192 C0.561397218,0.576830375 0.319836648,1.14681087 0.653144823,1.52937209 L4.515,5.999 L0.651753528,10.4722317 C0.297616103,10.8786932 0.596160266,11.5 1.12646571,11.5 L2.38669914,11.5 L2.49424191,11.4923263 C2.67126868,11.4669373 2.83517901,11.379503 2.95506492,11.2442916 L6,7.718 L9.04065576,11.2394016 C9.18294974,11.405239 9.39310479,11.5 9.61330086,11.5 L10.8735343,11.5 L10.9701475,11.4929228 C11.4386028,11.4231696 11.6801634,10.8531891 11.3468552,10.4706279 L7.484,6 L11.3482465,1.52776834 C11.7023839,1.12130679 11.4038397,0.5 10.8735343,0.5 L9.61330086,0.5 L9.50575809,0.50767375 C9.32873132,0.53306267 9.16482099,0.620497045 9.04493508,0.755708418 L5.999,4.281 L2.95934424,0.760598432 C2.81705026,0.59476096 2.60689521,0.5 2.38669914,0.5 L1.12646571,0.5 Z" fill="#ED4014" fill-rule="nonzero"></path>
                </g>
            </g>
        </g>
    </g>
</svg>